<?xml version="1.0" encoding="UTF-8" standalone="no"?>
<!-- Created with Inkscape (http://www.inkscape.org/) -->

<svg
   xmlns:dc="http://purl.org/dc/elements/1.1/"
   xmlns:cc="http://creativecommons.org/ns#"
   xmlns:rdf="http://www.w3.org/1999/02/22-rdf-syntax-ns#"
   xmlns:svg="http://www.w3.org/2000/svg"
   xmlns="http://www.w3.org/2000/svg"
   xmlns:inkscape="http://www.inkscape.org/namespaces/inkscape"
   version="1.1"
   width="592.33221"
   height="298.28378"
   viewBox="0 0 592.33222 298.28379"
   id="svg2"
   xml:space="preserve"><metadata
     id="metadata57"><rdf:RDF><cc:Work
         rdf:about=""><dc:format>image/svg+xml</dc:format><dc:type
           rdf:resource="http://purl.org/dc/dcmitype/StillImage" /><dc:title></dc:title></cc:Work></rdf:RDF></metadata><defs
     id="defs3"><inkscape:path-effect
       effect="spiro"
       id="path-effect3306" /></defs><path
     d="m 233.26062,70 c 0,-33.138 26.224,-60 58.571,-60 32.349,0 58.572,26.862 58.572,60 h -58.572 -58.571 z"
     id="path2985"
     style="fill-opacity:0.83069997" /><path
     d="m 350.40462,70 231.428,122.856"
     id="path2990"
     style="fill:none;stroke:#000000" /><path
     d="M 233.26062,70 24.689623,201.427"
     id="path2992"
     style="fill:none;stroke:#000000" /><path
     d="m 336.13513,146.79911 16.13481,0.23057 16.13369,0.23057 -8.30191,11.75493 -8.30265,11.75589 -7.83216,-11.98646 -7.83178,-11.9855 z"
     id="path2994"
     style="fill-opacity:0.83069997" /><path
     d="M 352.26994,147.02968 352.11261,86.17132"
     id="path2996"
     style="fill:none;stroke:#000000;stroke-width:0.3436242" /><path
     d="m 387.63513,159.38392 16.13369,0.23152 16.13481,0.23057 -8.30191,11.75494 -8.30265,11.75493 -7.83216,-11.98519 -7.83178,-11.98677 z"
     id="path2994-0"
     style="fill-opacity:0.83069997" /><path
     d="M 403.76882,159.61544 403.61261,98.75613"
     id="path2996-1"
     style="fill:none;stroke:#000000;stroke-width:0.3436242" /><path
     d="m 433.90361,183.38392 16.13481,0.23152 16.13481,0.23057 -8.30265,11.75494 -8.30191,11.75493 -7.83216,-11.98519 -7.8329,-11.98677 z"
     id="path2994-3"
     style="fill-opacity:0.83069997" /><path
     d="m 450.03842,183.61544 -0.15621,-60.85931"
     id="path2996-8"
     style="fill:none;stroke:#000000;stroke-width:0.3436242" /><path
     d="m 477.52451,215.72381 16.13481,0.23057 16.13481,0.23057 -8.30265,11.75494 -8.30191,11.75494 -7.8329,-11.98551 -7.83216,-11.98551 z"
     id="path2994-38"
     style="fill-opacity:0.83069997" /><path
     d="m 493.65932,215.95438 -0.15621,-60.8593"
     id="path2996-2"
     style="fill:none;stroke:#000000;stroke-width:0.3436242" /><path
     d="m 517.79411,230.18497 16.13481,0.23057 16.13481,0.23057 -8.30266,11.75589 -8.30265,11.75494 -7.83216,-11.98614 -7.83215,-11.98583 z"
     id="path2994-9"
     style="fill-opacity:0.83069997" /><path
     d="m 533.92892,230.41523 -0.15733,-60.85931"
     id="path2996-5"
     style="fill:none;stroke:#000000;stroke-width:0.3436242" /><path
     d="m 550.0637,254.15655 16.13369,0.23057 16.13481,0.23057 -8.30191,11.75494 -8.30265,11.75493 -7.83216,-11.98519 -7.83178,-11.98582 z"
     id="path2994-1"
     style="fill-opacity:0.83069997" /><path
     d="m 566.19739,254.38712 -0.15621,-60.85931"
     id="path2996-0"
     style="fill:none;stroke:#000000;stroke-width:0.3436242" /><path
     d="m 122.8408,194.98467 16.13481,0.23057 16.13481,0.23057 -8.30266,11.75494 -8.30265,11.75589 -7.83216,-11.98646 -7.83215,-11.98551 z"
     id="path2994-8"
     style="fill-opacity:0.83069997" /><path
     d="m 138.97561,195.21524 -0.15733,-60.85835"
     id="path2996-4"
     style="fill:none;stroke:#000000;stroke-width:0.3436242" /><path
     d="m 277.76074,132.72797 16.13481,0.23057 16.13481,0.23057 -8.30265,11.75494 -8.30191,11.75493 -7.83216,-11.9855 -7.8329,-11.98551 z"
     id="path2994-8-81"
     style="fill-opacity:0.83069997" /><path
     d="m 293.89555,132.95822 -0.15621,-60.8593"
     id="path2996-4-81"
     style="fill:none;stroke:#000000;stroke-width:0.3436242" /><path
     d="m 213.62613,136.49739 16.13481,0.23057 16.13481,0.23057 -8.30191,11.75494 -8.30265,11.75493 -7.83216,-11.9855 -7.8329,-11.98551 z"
     id="path2994-8-2"
     style="fill-opacity:0.83069997" /><path
     d="M 229.76094,136.72796 229.60473,75.86865"
     id="path2996-4-2"
     style="fill:none;stroke:#000000;stroke-width:0.3436242" /><path
     d="m 172.26975,166.12753 16.13481,0.23057 16.13369,0.23152 -8.30191,11.75494 -8.30265,11.75494 -7.83216,-11.98551 -7.83178,-11.98646 z"
     id="path2994-8-2-1"
     style="fill-opacity:0.83069997" /><path
     d="m 188.40456,166.35779 -0.15733,-60.85836"
     id="path2996-4-2-3"
     style="fill:none;stroke:#000000;stroke-width:0.3436242" /><path
     d="m 9.9999898,264.31181 16.1348102,0.23057 16.134813,0.23057 -8.302656,11.75494 -8.302653,11.75589 -7.832157,-11.98646 -7.8321572,-11.98551 z"
     id="path2994-8-4-0"
     style="fill-opacity:0.83069997" /><path
     d="m 26.1348,264.54238 -0.157329,-60.8593"
     id="path2996-4-7-4"
     style="fill:none;stroke:#000000;stroke-width:0.3436242" /><path
     d="m 52.302723,238.55708 16.1337,0.23057 16.13481,0.23057 -8.30191,11.75494 -8.30265,11.75493 -7.83216,-11.9855 -7.83179,-11.98551 z"
     id="path2994-8-4-0-1"
     style="fill-opacity:0.83069997" /><path
     d="m 68.436423,238.78765 -0.15622,-60.85931"
     id="path2996-4-7-4-5"
     style="fill:none;stroke:#000000;stroke-width:0.3436242" /><path
     d="m 86.571203,217.78572 16.134807,0.23057 16.13481,0.23057 -8.30265,11.75493 -8.30191,11.75494 -7.832897,-11.98551 -7.83216,-11.9855 z"
     id="path2994-8-4-0-1-0"
     style="fill-opacity:0.83069997" /><path
     d="M 102.70601,218.01597 102.5498,157.15666"
     id="path2996-4-7-4-5-8"
     style="fill:none;stroke:#000000;stroke-width:0.3436242" /></svg>