<?xml version="1.0" encoding="utf-8"?>
<svg width="700pt" height="780pt" version="1.1" xmlns="http://www.w3.org/2000/svg" xmlns:xlink="http://www.w3.org/1999/xlink">
  <path d="m266.92 265.01c17.509-29.22 29.502-89.695 33.941-145.66l57.276-6.364 55.154 7.7782 62.932-15.556 133.64 21.213 26.163 7.0711c-10.803 20.404-18.402 40.167-19.799 58.69l-6.364 36.062c0.29051 10.787 2.0831 20.073 4.2426 28.991l-0.7071 72.125 2.8284 23.335-70.004-49.497-132.23-43.134-48.083 21.213-52.326 76.368-18.385-7.0711-28.284-85.56z" fill="#dcdcd4"/>
  <g transform="translate(10.949 -5)" fill="none" stroke="#a7a69c">
    <path d="m358.5 127.5c-2.955 44.524 0.43057 87.781 4 131"/>
    <path d="m327 125.5c-13.931 57.199-29.238 114.86-55 176"/>
    <path d="m364 129c-0.26484 32.182 0.99214 64.367 2 96.531 0 0-1.2646-64.38-1-96.531h-1z" fill="#a7a69c" stroke="none"/>
    <path d="m348.5 125-9.5 155.5"/>
    <path d="m334 125-54.5 199.5"/>
    <path d="m342.5 125c-9.0712 61.786-26.045 201.77-26.5 202"/>
    <path d="m339 125c-16.08 73.877-32.772 147.45-51.5 220"/>
    <path d="m351.5 265.5h1c-0.72004-25.841-1.1053-53.709-0.5-87.5 0 0-1.2203 61.649-0.5 87.5z" fill="#a7a69c" stroke="none"/>
    <path d="m297.5 352.41 1 0.1875c7.9199-38.494 16.585-77.004 22-115.53 0 0-15.078 76.838-23 115.34z" fill="#a7a69c" stroke="none"/>
    <path d="m274.53 313.34 0.9375 0.3125c4.5763-14.577 9.1305-29.108 15-44.969 0 0-11.361 30.08-15.938 44.656z" fill="#a7a69c" stroke="none"/>
  </g>
  <g transform="translate(10.949 -5)" fill="none" stroke="#a7a69c">
    <path d="m575 136.5c-12.64 63.133-6.5575 120.5-2.5 178.5"/>
    <path d="m555.5 131.5c-8.696 63.863-6.9048 117.24-1 166.5"/>
    <path d="m535.5 129.5c-5.3752 50.577-7.9244 100.75-4 150"/>
    <path d="m520 124.5c-9.594 46.833-13.572 93.667-12.5 140.5"/>
    <path d="m500.5 124c-9.59 44.333-15.854 88.667-13.5 133"/>
    <path d="m477.5 125.5c-11.011 42.631-16.982 84.702-16 126"/>
    <path d="m452 129.5c-10.425 39.928-17.217 79.402-17 118"/>
    <path d="m425.5 131.5c-11.307 39.495-16.027 77.672-14 114.5"/>
    <path d="m396 139c-7.4809 36.5-7.8988 73-7.5 109.5"/>
    <path d="m467.5 121c-14.55 42.5-19.069 85-19 127.5"/>
    <path d="m527 126c-6.7347 50.634-8.2475 99.527-7 147.5"/>
    <path d="m487.53 125.88c-3.7966 14.3-6.7429 28.337-8.9375 42.156 0 0 6.0873-27.64 9.875-41.906l-0.9375-0.25zm-14.031 128.66 1-0.0625c-0.48867-14.791-0.36479-29.755 0.5625-44.969 0 0-2.0521 30.212-1.5625 45.031z" fill="#a7a69c" stroke="none"/>
    <path d="m501.06 174c-1.8917 12.992-3.0582 25.634-3.6562 38.438-0.47479 10.166-0.58846 20.435-0.40625 31.062 0 0 0.93258-20.859 1.4062-31 0.59659-12.773 1.7694-25.385 3.6562-38.344 1.6002-10.99 3.723-22.22 6.4375-34.031 0 0-5.8332 22.857-7.4375 33.875z" fill="#a7a69c" stroke="none"/>
    <path d="m539.72 228c0.14629 20.508 1.4983 40.808 3.2812 61.031l1-0.0625c-1.7817-20.209-3.1352-40.499-3.2812-60.969-0.12585-17.643 0.65028-35.425 2.7812-53.438 0 0-3.9073 35.761-3.7812 53.438z" fill="#a7a69c" stroke="none"/>
    <path d="m566 133.38c-10.174 44.383-7.8706 87.113-6 130.16 0 0-0.76203-38.681-0.59942-58.039 0.19903-23.694 2.0212-47.533 7.5994-71.867l-1-0.25z" fill="#a7a69c" stroke="none"/>
    <path d="m585.03 139.88c-6.1392 22.861-7.1272 42.257-9.5312 62.562 0 0 4.3595-39.563 10.469-62.312l-0.9375-0.25z" fill="#a7a69c" stroke="none"/>
    <path d="m580.9 284.01c1.7864 17.693 4.5368 35.375 7.1038 53.052l1-0.125c-4.5266-31.173-9.6174-62.332-9-93.438 0 0-0.4664 27.015 0.89619 40.51z" fill="#a7a69c" stroke="none"/>
    <path d="m436.53 133.38c-7.1026 26.324-10.561 52.025-12.5 77.469-0.65307 8.5688-1.1381 17.102-1.5312 25.625 0 0 1.8792-16.975 2.5312-25.531 1.9362-25.406 5.3563-51.068 12.438-77.312l-0.9375-0.25z" fill="#a7a69c" stroke="none"/>
    <path d="m411.5 134c-11.538 38.523-11.711 75.783-11.5 113"/>
    <path d="m381.5 134.44c-3.5073 22.38-3.4601 42.944-4.5 64.031 0 0 2.0074-41.62 5.5-63.906l-1-0.125z" fill="#a7a69c" stroke="none"/>
  </g>
  <path d="m506.2 256.5c4.3406-0.45562 4.9732-2.3017 4-4.75 3.4164-1.056 6.3224-2.7923 7.75-6.5 0.55312 2.9948 2.7154 3.3076 5.25 3l0.25 16-17.25-7.75z" fill-opacity=".70588"/>
  <path d="m584.17 231.78c-13.326-0.39076-24.668 4.7626-34.656 9.5312-11.415 5.4499-21.082 10.189-30.875 8.9688-4.7022-0.74373-6.94 10.044-1.375 10.938 13.957 1.7396 25.79-4.6478 37-10s21.764-9.8902 34.125-8.0312c4.0583 0.305 6.8487-9.4704 1.625-10.875-1.9861-0.29867-3.94-0.47543-5.8438-0.53125z" fill="#c80000" stroke="#000"/>
  <path d="m319.96 124.3c-10.84 57.044-27.078 107.54-45.255 145.66" fill="none" stroke="#a7a69c"/>
  <path d="m305.81 125.01c-2.2278 52.115-17.425 94.966-32.527 137.89" fill="none" stroke="#a7a69c"/>
  <path d="m300.16 122.89-2.1213 24.749c1.1411-4.153 4.2236-7.0118 11.271-7.227 3.883-0.11858 9.2124 9.4942 11.599 18.277l8.9498-36.506c-9.4577 2.0029-18.456 5.8442-29.698 0.70711z" fill-opacity=".15686"/>
  <path d="m266.92 265.01c17.509-29.22 29.502-89.695 33.941-145.66l57.276-6.364 55.154 7.7782 62.932-15.556 133.64 21.213 26.163 7.0711c-10.803 20.404-18.402 40.167-19.799 58.69l-6.364 36.062c0.29051 10.787 2.0831 20.073 4.2426 28.991l-0.7071 72.125 2.8284 23.335-70.004-49.497-132.23-43.134-48.083 21.213-52.326 76.368-18.385-7.0711-28.284-85.56z" fill="none" stroke="#000"/>
  <path d="m276.11 287.64c16.757-43.947 39.628-103.8 53.74-169l53.033 2.8284c-1.6321 50.006 1.3502 94.243 9.8995 131.52l-43.841 33.941-24.042 56.569-13.435 14.142-15.556-9.1924-19.799-60.811z" fill="none" stroke="#000"/>
  <path d="m241.95 580 4 15 2 2 17-2 20 30 60 32 60-32 54-37 26-5-54-66-96-17-48 17-45 63z" fill="#dcdcd4"/>
  <path d="m279.98 600.31 0.9375 0.375c3.5724-8.9799 5.7188-15.136 8-21.531 0 0-5.372 12.194-8.9375 21.156z" fill="#a7a69c"/>
  <path d="m284.45 530.44-3 27.5 4-27.375-1-0.125z" fill="#a7a69c"/>
  <path d="m411.45 522.47c-0.80385 9.8932 0.40837 19.36 2.4062 28.656 1.9907 9.2632 4.7781 18.352 7.125 27.5 0 0-4.1774-18.511-6.1562-27.719-1.986-9.2413-3.1681-18.614-2.375-28.375l-1-0.0625z" fill="#a7a69c"/>
  <g transform="translate(10.949 -5)" fill="none" stroke="#a7a69c">
    <path d="m378 520.5c9.3614 60.148 22.864 82.319 29.5 91"/>
    <path d="m393.5 525.5c-3.3945 28.121 9.9039 53.46 22 79"/>
    <path d="m407.5 530.5c0.53288 23.328 8.0837 45.486 16.5 67.5"/>
    <path d="m423 537.5c-0.17516 18.802 5.0743 36.518 11.5 54"/>
    <path d="m440 554c-2.2348 10.667 0.61338 21.333 5 32"/>
    <path d="m299 522c-7.3751 29.667-13.395 59.333-24.5 89"/>
    <path d="m283.5 529c-4.3661 23.5-7.2966 47-18 70.5"/>
    <path d="m265.5 544c-0.91576 16.333-1.1505 32.667-8.5 49"/>
    <path d="m249 566.5c1.9439 8 3.1285 16-1.5 24"/>
    <path d="m237.5 582c3.3576 1.9045 4.4726 4.9304 2.5 9.5"/>
  </g>
  <path d="m315.95 516-32.825 6.423s-25.1 56.754-19.366 49.062c2.5873-3.4713 18.217 13.132 20.305 9.0517 2.0816-4.0688-5.3594-33.141 5.2011-44.299 9.6028-10.146 24.341-17.3 21.191 6.4713-3.4861 16.905-7.1632 33.301-12.062 46.44-3.3154 8.893-11.19-11.706-15.944-6.6487l10 37 12.5-39.5 10-51 1-13z" fill-opacity=".15686"/>
  <path d="m374.45 512 6 29 13 42 14.5 31.5 22-49c-6.6369-7.7287-14.978 18.392-21.27 9.375-7.7481-11.104-14.663-23.176-19.336-36.193-3.84-14.904 7.8792-13.14 22.272-8.0812 4.5246 1.5903 9.8841 2.8126 12.692 5.7424 10.45 10.903-3.1883 22.487 3.0558 30.897 7.4825 10.077 31.497 0.31222 38.753 6.834l9.6298-3.3028-36.352-39.968-55.944-18.802h-9z" fill-opacity=".15686"/>
  <path d="m241.95 580 4 15" fill="none" stroke="#000"/>
  <path d="m617.95 196c0.375 8.25-0.83299 25.845-7.5 33-5.125 5.5-11.125 5.25-15-1s-7.2414-19.024-0.5-24c7.2418-5.3452 22.666-15.346 23-8z" fill="#c2c199"/>
  <path d="m268.34 762.82c83.687 35.031 154.16 29.837 239.71 4.9498 8.6227-2.5085 3.4065-10.532 4.1035-19.866 0.71648-9.5938 4.6866-21.826 0.84626-21.146-86.143 15.17-186.85 11.147-251.02-7.7782-7.1935-2.1216-0.50393 40.966 6.364 43.841z" fill="#dad9bb"/>
  <path d="m489.66 728.88 24.042 6.364-2.8284 14.142 3.5355 12.728-2.8284 4.2426-24.63 6.7945c7.086-14.536 1.2804-22.04-12.347-25.278-5.0252-4.3224-6.988-13.5 0.91408-16.165l14.142-2.8284z" fill-opacity=".15686"/>
  <path d="m269.84 837.32c83.687 35.031 152.16 30.337 237.71 5.4498 8.6227-2.5085 7.2837-41.227 3.4498-40.512-86.378 16.111-181.85 11.634-245.02-11.278-7.0504-2.5571-3.0039 43.466 3.864 46.341z" fill="#dad9bb"/>
  <path d="m268.34 762.82c83.687 35.031 154.16 29.837 239.71 4.9498 8.6227-2.5085 3.4065-10.532 4.1035-19.866 0.71648-9.5938 4.6866-21.826 0.84626-21.146-86.143 15.17-186.85 11.147-251.02-7.7782-7.1935-2.1216-0.50393 40.966 6.364 43.841z" fill="none" stroke="#000" stroke-width="2"/>
  <path d="m234.45 619c4.8317-49.363 39.057-32.401 47.5-17 40.602 74.06 82.012 47.26 120 15 45.821-38.912 98.518-57.706 148-86l25 107-14-4c-21.733 41.728-3.5247 92.19-48 112-27.708-8.7857-45.766-53.163-89-45-47.842 9.0332-93.884 19.08-150-1-8.3926-3.0031-14.332 7.8354-18 17-12.368-20.639-13.188-43.432-16.754-62.257-2.1452-11.326-5.9983-22.952-4.7462-35.743z" fill="#dad9bb"/>
  <path d="m271.34 915.82c83.687 35.031 150.16 32.837 235.71 7.9498 8.6227-2.5085 7.7692-47.301 3.9498-46.512-86.997 17.969-180.06 13.772-242.52-11.278-6.9609-2.7917-4.0039 46.966 2.864 49.841z" fill="#dad9bb"/>
  <path d="m297.45 39c-16.5-2.75-5.7877-24.487 14-13 7.808 4.5325 15.57 14.276 15.5 18 4.8761 2.0653 6.9348-0.047708 26-10 19.875-10.375 29.298-14.09 59.5 0.5 30.003 14.494 46.117 15.269 73 17.5 9.3632-2.057 36.65-28.246 53.893-11.405 10.543 10.297-36.532 27.5-31.393 32.405 24.846 17.975 51.396 23.494 67 26.5 24.145 4.6513 47.807-7.6592 59.119-4.9952 25.772 6.0693 11.724 39.635-0.1193 41.995-18.7 3.7274-25.351 0.94797-40-2-11.747-2.364-22.597-10.036-32.913-9.7573-25.493 0.70214-22.344-4.9941-41.087-6.2427-16.981-1.1312-27.958 7.9761-41-4 0 0-10.744 16.932-42.012 12.957-11.05-1.4045-20.562 6.4424-25.988 6.0427-23.902-1.7609-46.929-22.382-88.5-9.5-11.253 3.4872-14.422 3.6112-25.5-3.5-7.1436-4.5858-18.291-36.668-6-55.5 7.267-11.134 10.94-19.869 6.5-26z" fill="#ececee"/>
  <path d="m445.11 586.75 29.698-17.678 72.125-28.284 31.82 67.175-26.163 41.012s-17.687-83.006-40.305-63.64c-19.872 17.015-27.243 16.925-40.305 6.364-8.3085-6.7175-26.87-4.9498-26.87-4.9498z" fill-opacity=".15686"/>
  <path d="m234.45 619c4.8317-49.363 39.057-32.401 47.5-17 40.602 74.06 82.012 47.26 120 15 45.821-38.912 98.518-57.706 148-86l25 107-14-4c-21.733 41.728-3.5247 92.19-48 112-27.708-8.7857-45.766-53.163-89-45-47.842 9.0332-93.884 19.08-150-1-8.3926-3.0031-14.332 7.8354-18 17-12.368-20.639-13.188-43.432-16.754-62.257-2.1452-11.326-5.9983-22.952-4.7462-35.743z" fill="none" stroke="#000" stroke-width="2"/>
  <path d="m513 755.04-11.495-6.2024c-6.3178-4.9304-12.636-4.9805-18.953-3.2793-6.3448-1.881-11.135-5.3163-22.492-2.1855-6.9081-2.2381-13.938-3.9892-22.158-0.97864-7.7944-2.6957-15.754-4.5634-24.864-0.6817-8.905-2.2208-17.441-2.9673-25.019 0.12031-5.4846-2.1017-12.909-3.0397-25.033-1.1576-8.667-3.8327-17.334-3.9713-26-2.4898-6.0934-3.3647-12.755-5.3086-21.494-2.0582-5.9862-4.6444-13.251-5.4528-21.904-2.0974-5.3889-3.3412-11.387-3.6358-18.109-0.31142-3.3852-3.372-8.2425-3.7996-15.621 0.8156-2.2883-10.842-7.3306-21.685-11.314-32.527 6.8463 1.0924 11.454-0.6139 12.97-6.1843 6.3119 0.80163 12.811 1.8846 16.54-1.1886 6.5898 7.215 11.607 4.9964 16.933 4.6236 6.2845 2.8598 12.569 6.5139 18.853 4.2571 8.7433 1.9247 17.487 4.5933 26.23 1.3951 12.773 3.0497 23.732 2.4695 32.506-2.4792 9.2573 2.5105 17.626 0.57564 25.553-3.5628 9.8381 3.5263 17.396 0.21183 24.602-4.1593 7.3966 0.72493 14.793 1.3012 22.19-0.59036 7.019 6.0579 14.038 6.9852 21.057 7.8296 4.1776 8.2649 10.149 12.942 18.326 13.209 3.5412 6.2638 9.463 9.5519 18.336 9.1507 4.9775 5.6747 12.699 3.1187 20.263 1.0337-7.9371 9.8995-9.9153 19.799-9.8995 29.698z" fill="#dcdcd4"/>
  <path d="m558.25 631.3c-13.824-44.753-38.751-61.75-71.418-59.397l69.296-37.477 25.456 70.004-23.335 26.87z" fill-opacity=".15686"/>
  <path d="m595.02 227.54c5.2385 12.728 6.5463 25.456 4.2426 38.184" fill="none" stroke="#000"/>
  <path d="m255.95 277c-5.1855 14.16-13.958 42.184-25 66-13.346 28.786-7.7955 41.289-3 60 24.204 94.44 8.1735 123.18 2 137-12.86 28.788-5.3524 49.469 7.4512 46.025 12.07-3.2465 25.55-26.297 39.549-47.025 22.499-33.313 102.35-36.964 158-5 24.207 13.903 35.017 73.856 81 31 15.186-14.153 33.562 14.148 42.632 31.882 6.8011 13.297-5.2111 32.728-7.6317 42.118-1.407 4.0036 0.36652 8.2354 3.6257 11.524 5.9439 5.9977 16.829 8.8582 22.374 1.4759 38.166-50.809 26.274-98.952 31-132 9.1554-64.027 59.46-112.82 40-165-6.1041-16.368-11-30-11-30-9.6401-49.803-36.18-96.032-37.983-55.023-0.57348 13.041 6.511 35.565 10.983 75.023 0 0-50.164-78.183-120-94-102.56-23.228-116.34-0.58422-139 25-31.69 35.786-37.77 136.1-71 11-4.7955-18.053-6.2426-17.722-8-28-1.0955-6.407-10.921 4.1316-16 18z" fill="#dad9bb"/>
  <path d="m601.95 233.25 3.25 20.75" fill="none" stroke="#a7a69c"/>
  <path d="m255.95 277c-5.1855 14.16-13.958 42.184-25 66-13.346 28.786-7.7955 41.289-3 60 24.204 94.44 8.1735 123.18 2 137-12.86 28.788-5.3524 49.469 7.4512 46.025 12.07-3.2465 25.55-26.297 39.549-47.025 22.499-33.313 102.35-36.964 158-5 24.207 13.903 35.017 73.856 81 31 15.186-14.153 33.562 14.148 42.632 31.882 6.8011 13.297-5.2111 32.728-7.6317 42.118-1.407 4.0036 0.36652 8.2354 3.6257 11.524 5.9439 5.9977 16.829 8.8582 22.374 1.4759 38.166-50.809 26.274-98.952 31-132 9.1554-64.027 59.46-112.82 40-165-6.1041-16.368-11-30-11-30-16.797-75.99-35.284-84.508-37.438-56.596-1.2762 16.539 8.6507 43.251 10.438 76.596 0 0-50.164-78.183-120-94-102.56-23.228-116.34-0.58422-139 25-31.69 35.786-37.77 136.1-71 11-4.7955-18.053-6.2426-17.722-8-28-1.0955-6.407-10.921 4.1316-16 18z" fill="none" stroke="#000" stroke-width="2"/>
  <path d="m409.95 617.5c-11.49 5.6318-10.476 9.1091-13.286 12.745-6.458 0.98316-12.274 3.3852-15.948 12.408-11.684-2.5808-13.632 3.8202-16.112 8.8878-7.8389-1.2211-15.173-2.5493-17.558 4.8334-8.5621-5.1729-14.471-2.985-20.098-1.8675-5.0889-1.6095-10.077-4.1146-14.959-7.5611-3.7071-6.3231-7.3156-12.521-13.821-12.636-1.4946-4.6299-3.6416-8.5364-7.7181-9.8103 14.169-37.619 22.654-76.049 27.5-115 7.4266 0.85062 8.4747-3.2177 12.056-4.9306 6.23 3.0613 13.574 3.8948 22.469 1.6261 6.7687 4.5342 9.0073 1.518 11.953-0.31974 3.1741 1.6935 6.3482 6.0804 9.5223 1.6242 5.3666 37.404 18.663 73.926 36 110z" fill="#dcdcd4"/>
  <path d="m617.95 196c0.375 8.25-0.83299 25.845-7.5 33-5.125 5.5-11.125 5.25-15-1s-7.2414-19.024-0.5-24c7.2418-5.3452 22.666-15.346 23-8z" fill="none" stroke="#000" stroke-width="2"/>
  <path d="m595.73 203.5c5.7697-22.863 8.7328-45.726 3.5355-68.589" fill="none" stroke="#000"/>
  <path d="m297.45 39c-16.5-2.75-5.7877-24.487 14-13 7.808 4.5325 15.57 14.276 15.5 18 4.8761 2.0653 6.9348-0.047708 26-10 19.875-10.375 29.298-14.09 59.5 0.5 30.003 14.494 46.117 15.269 73 17.5 9.3632-2.057 36.65-28.246 53.893-11.405 10.543 10.297-36.532 27.5-31.393 32.405 24.846 17.975 51.396 23.494 67 26.5 24.145 4.6513 47.807-7.6592 59.119-4.9952 25.772 6.0693 11.724 39.635-0.1193 41.995-18.7 3.7274-25.351 0.94797-40-2-11.747-2.364-22.597-10.036-32.913-9.7573-25.493 0.70214-22.344-4.9941-41.087-6.2427-16.981-1.1312-27.958 7.9761-41-4 0 0-10.744 16.932-42.012 12.957-11.05-1.4045-20.562 6.4424-25.988 6.0427-23.902-1.7609-46.929-22.382-88.5-9.5-11.253 3.4872-14.422 3.6112-25.5-3.5-7.1436-4.5858-18.291-36.668-6-55.5 7.267-11.134 10.94-19.869 6.5-26z" fill="none" stroke="#000" stroke-width="2"/>
  <path d="m269.84 837.32c83.687 35.031 152.16 30.337 237.71 5.4498 8.6227-2.5085 7.2837-41.227 3.4498-40.512-86.378 16.111-181.85 11.634-245.02-11.278-7.0504-2.5571-3.0039 43.466 3.864 46.341z" fill="none" stroke="#000" stroke-width="2"/>
  <path d="m483.3 806.66c22.627-6.364 26.163-3.5355 26.163-3.5355l4.9498 3.5355-0.70711 19.799-3.5355 15.556-26.163 7.0711c5.9396-16.251 15.077-33.433-0.70711-42.426z" fill-opacity=".15686"/>
  <path d="m513 807.37c-10.299-2.7868-17.779 0.06636-25.501 2.4333-9.8704-2.09-17.111 0.20299-22.991 4.7639-7-2.2111-14.224-3.5224-22.543-0.45539-8.711-1.0326-14.943 0.41392-21.039 1.9967-8.2037-2.6023-16.965-2.9727-26.502-0.24494-7.4948-2.9156-15.849-4.1116-26.003-1.7095-9.8642-2.7041-18.156-3.049-25.355-1.7562-8.6086-3.8229-17.801-5.3113-27.742-3.8028-4.6518-2.0441-6.785-5.0956-17.614-4.6689-4.4318-2.8289-10.12-4.4015-17.218-4.564-4.1246-2.7809-9.6902-4.6012-17.808-4.7203 2.6936-12.492 2.4635-24.984 1.4142-37.477 6.7162 6.9937 11.867 6.162 17.318 6.8268 6.096 3.4384 12.192 7.4203 18.288 5.7116 8.2333 5.9262 12.971 4.8606 18.736 5.8517 9.8513 4.1625 19.286 6.6579 27.808 5.5045 10.402 4.3558 20.804 3.3658 31.205 2.5317 9.0897 3.7194 19.177 2.4484 29.592-0.45847 10.422 1.1866 17.702-0.7693 25.594-2.1122 8.2515 0.2855 14.02-1.9118 19.657-4.2413 9.717 2.8455 16.542-1.5394 23.692-5.1119 7.7589 2.5881 14.383-0.49833 20.825-4.4934 5.1698 0.16835 10.415 0.11163 16.893-3.6449-2.4841 15.363-3.8322 30.347-0.7071 43.841z" fill="#dcdcd4"/>
  <path d="m480.47 881.61 29.698-4.9498 3.5355 6.364-0.7071 24.749-2.1213 15.556-31.82 7.7782c20.312-37.507 12.707-45.455 1.4142-49.497z" fill-opacity=".15686"/>
  <path d="m271.34 915.82c83.687 35.031 150.16 32.837 235.71 7.9498 8.6227-2.5085 7.7692-47.301 3.9498-46.512-86.997 17.969-180.06 13.772-242.52-11.278-6.9609-2.7917-4.0039 46.966 2.864 49.841z" fill="none" stroke="#000" stroke-width="2"/>
  <path d="m513 880.9c-5.4893-2.8267-10.979-2.1498-16.468 3.0207-5.3963-2.2283-10.793-0.0804-16.189 2.9696-7.4849-3.6045-11.955 0.32899-16.89 3.0982-9.3583-3.637-16.304-1.2416-23.04 1.6751-7.162-2.2487-14.324-3.3513-21.486 0.99897-7.4385-1.2184-13.886-2.9324-26.416-1.6052-8.314-0.97681-15.99-0.67673-22.97 1.013-10.812-5.01-17.076-3.9552-24.069-3.8714-8.1853-4.0759-13.389-2.1889-19.02-1.1558-4.8418-3.4447-9.6836-5.7919-14.525-3.9467-8.1383-4.3804-14.807-4.3528-21.665-4.8922-4.8146-4.2305-7.7971-2.9649-11.393-3.5408-3.484-3.8639-7.9171-5.8294-14.063-4.3702 1.7785-12.964 1.4409-25.927 1.4142-38.891 5.1887 5.4748 8.823 6.5638 11.347 5.3762 3.1672 3.1464 6.3345 4.4309 9.5017 4.9208 9.3335 4.1134 18.337 7.2361 26.345 7.3732 8.0428 2.9907 15.2 4.2102 21.913 4.5411 9.6685 6.1144 17.038 3.7308 24.127 3.3963 8 4.2438 16 3.863 24 1.4643 8.0139 2.6736 16.709 2.6217 26.056-0.03797 8.7 1.6631 17.4-0.23446 26.1-3.8904 9.9576 1.0686 19.401 0.08069 28.027-4.1776 8.9804 0.76447 16.667-2.3532 24.345-5.4953 6.9282-1.1313 12.798 1.4131 22.189-7.1066 0.15236 15.168 0.80035 29.841 2.8284 43.134z" fill="#dcdcd4"/>
  <path d="m412.59 269.26c-25.039-9.5612-71.858 114.39-103.24 114.55-24.583 0.12567-43.841-94.752-43.841-94.752s11.588 53.342 17.053 71.396c8.6325 28.514 15.906 59.04 32.444 59.419 27.52 0.6476 39.281-31.456 54.836-72.817 17.221-45.792 22.691-65.138 42.745-77.796z" fill-opacity=".15686"/>
  <path d="m412.59 269.26c-25.039-9.5612-71.858 114.39-103.24 114.55-24.583 0.12567-43.841-94.752-43.841-94.752s11.588 53.342 17.053 71.396c8.6325 28.514 12.371 42.575 28.909 42.955 27.52 0.6476 32.817-14.992 48.371-56.353 17.221-45.792 32.691-65.138 52.745-77.796z" fill-opacity=".15686"/>
  <path d="m592.21 321.57c13.663 39.128 7.8387 71.054 0.80562 108.19-3.9157 20.678-34.369 69.843-35.88 95.897-2.9402 50.713 29.151 44.707 29.224 69.628 0.04395 14.981-2.0283 31.429-9.4156 56.71 38.166-50.809 26.274-98.952 31-132 9.1554-64.027 59.46-112.82 40-165-6.1041-16.368-11-30-11-30-10.652-28.436-13.408-52.511-19.511-62.817-15.087-25.474-25.958 6.4826-7.4888 82.817 0 0-6.3717-9.9307-17.735-23.43z" fill-opacity=".15686"/>
  <path d="m606.64 456.37c-13.95 85.822-17.586 169.57-7.6473 152.92 18.48-30.959 5.5866-65.708 8.9587-89.29 9.1554-64.027 59.46-112.82 40-165-6.1041 43.029-37.088 28.516-41.311 101.37z" fill-opacity=".15686"/>
  <path d="m477.45 511c0.36558 13.047 17.75 53.346 72.5-31.5 18.54-28.731 18.97-59 21-88.5-25.171 46.995-94.615 80.211-93.5 120z" fill-opacity=".079602"/>
  <path d="m482.45 544.5c-24.546-14.106-41.844-46.118-89.5-34 41.103-3.207 65.195 36.111 89.5 34z" fill="#fff" fill-opacity=".39216"/>
  <path d="m228.95 566.5c17.1-2.4346 33.464-59.745 84-56-53.527 2.9807-71.127 91.442-84 56z" fill="#fff" fill-opacity=".39216"/>
  <path d="m268.95 277.5c23.991 58.199 25.801 80.742 39.42 79.933 21.597-1.282 20.47-63.262 65.08-91.933-35.554 34.585-42.284 109.55-65.573 108.55-12.075-0.51817-20.352-25.805-38.927-96.547z" fill="#fff" fill-opacity=".39216"/>
  <path d="m273.29 686.45c20.606 16.646 97.436 20.86 151.32 1.4142 43.597-15.733 36.802-113.66 8.4853-77.075-46.358 59.891-121.64 70.139-156.98 9.1924-18.114-31.243-21.787 51.154-2.8284 66.468z" fill="#fff" fill-opacity=".39216"/>
  <path d="m500.45 681.5c16.806-19.156 38.018-36.66 45-59.5l6.5 23.5-51.5 36z" fill-opacity=".15686"/>
  <path d="m575.93 652.51c-1.9504-1.0269-3.7583-1.2623-3.3575-3.2297-2.4956 2.0672-4.2648 1.4197-6.0727-0.09819-1.5927-1.3372-1.8614-1.9196-0.91354-4.0284-2.5859 1.5387-4.2048 0.56137-5.4208-1.6659-1.2098-2.2158-1.1369-0.46452 0.91227-3.1716-1.8381 1.101-2.6315-0.94017-4.0038-1.0037-0.94135-0.04361-0.76172-2.8897-1.65-3.0659-22.312 18.616-45.834 40.865-66.468 54.447 2.4724-0.32018 4.4626 0.00265 5.5241 1.5637 3.2065 2.6154 3.6378 5.2307 3.5833 7.8461 1.6292-0.55468 3.1956-1.717 4.8876-0.61665 3.3757 2.1953 4.3848 4.203 5.5457 6.3045 2.4284-0.04497 3.5836-1.3473 7.8823 0.76053 3.1071 1.5235 3.7127 3.0986 3.7451 5.1691 2.2638-0.39223 4.6992-1.1846 5.6014 1.6002 13.962-20.27 25.488-40.541 50.205-60.811z" fill="#dcdcd4"/>
  <path d="m414 34.851 23.335 10.253 40.659 6.0104 9.8995 0.35355 6.7175-4.5962c-10.238 9.032-15.905 23.491-5.3033 31.113 6.0104 0.16621 12.021 1.2266 18.031-4.9497l27.931 15.556 43.487 11.314s28.356-2.3857 17.678 0c-15.083 3.3698-40.146 9.091-62.933-5.3033-34.96-22.084-44.952-5.7142-54.447 20.506-2.271-1.4331-6.8987 4.4521-15.456 6.875-13.375 3.7869-31.247 4.7271-25.556-0.86463 12.03-11.819 53.161-34.755 16.617-65.054-10.63-8.8131-28.152-7.3431-40.659-21.213z" fill-opacity=".15686"/>
  <path d="m487.89 51.468 6.7175-4.5962c-10.238 9.032-15.905 23.491-5.3033 31.113 6.0104 0.16621 12.021 1.2266 18.031-4.9497l0.17678-1e-6 5.1265 3.3588c-19.074 2.8723-27.97 11.56-33.941 21.92 0.02122-15.435 6.5204-29.691-7.7782-47.73l7.2478 0.88388h9.7227z" fill-opacity=".15686"/>
  <path d="m616.95 95c16.966 6.4051 24.2 19.762 22.5 39.5l7-10.5 2-16.5-6-10-17.5-3.5-8 1z" fill-opacity=".15686"/>
  <path d="m382.18 126.42c0.52792 39.127 2.469 78.253 9.5459 117.38-6.4759-68.777-7.1859-106.23 14.494-100.27 7.0429 1.303 16.373 5.2398 26.164-4.3792 5.9372-5.8329 22.254 0.91886 35.08 1.2569 8.4785 0.22345 12.617-6.0154 21.296-7.4493 26.673-4.4063 50.376-2.4716 74.439 1.2426 8.9979 1.3889 16.914 3.9476 23.526 7.4097 24.424 11.746-1.4034 61.258-1.2994 69.38 0.05926 4.6278 7.0041 21.828 9.1495 36.637 2.0388 14.073-0.69269 25.746-1.4989 31.466-2.0835 14.784-10.926 22.652-16.063 22.779 9.135 13.498 21.225 32.32 31.296 42.27 6.1464 6.0726-6.7142-63.111-10.349-75.504 7.6768 0.21159-0.25187-33.158-2.4612-37.582-7.4818-14.981-1.2308-29.271-0.61194-29.048 4.7778 1.7223 8.2023-49.942 7.2027-48.008l-4.2426-17.678-28.284-11.314-26.87-0.70711-16.971-5.6569h-21.213l-12.021 2.8284-13.435-7.0711-11.314 9.8995-20.506 4.2426-15.556-0.70711-18.385 5.6569-31.113-7.0711z" fill-opacity=".15686"/>
  <path d="m300.45 116.5c7.6002 3.8833 26.918-4.233 48.14-3.8836 23.523 0.38732 51.971 13.185 64.86 12.884-22.943-2.6644-33.522-18.409-65.5-20.5-28.279-1.8495-18.375 10.375-47.5 11.5z" fill-opacity=".15686"/>
  <path d="m323.95 100c15.192-8.4836 30.975-8.6777 47.5 1.5-15.833-2.4387-31.667-3.0606-47.5-1.5z" fill="#fff" fill-opacity=".39216"/>
  <path d="m306.45 24c5.6941 7.5 11.867 15 8.5 22.5 4-3.3767 8-1.8932 12-1.5" fill-opacity=".15686"/>
  <path d="m314.95 46.5c4-3.3767 8-1.8932 12-1.5" fill="none" stroke="#000" stroke-width="2"/>
  <path d="m284.6 748.68c1.6288-11.594 107.27 8.4387 105.36 14.142-4.687 13.982-108.16 5.7852-105.36-14.142z" fill="#fff" fill-opacity=".39216"/>
  <path d="m284.6 818.68c1.6288-11.594 118.12 13.96 116.67 19.799-4.687 18.932-119.47 0.12837-116.67-19.799z" fill="#fff" fill-opacity=".39216"/>
  <path d="m285.68 896.15c0.76109-5.4178 24.416-0.35903 50.401 4.5835 29.625 5.6347 61.854 11.966 59.201 17.337-8.6392 17.485-112.4-1.993-109.6-21.92z" fill="#fff" fill-opacity=".39216"/>
  <path d="m597.85 202.08c14.706-0.31696 15.671 11.39 15.556 24.042l3.5355-16.971v-14.849l-12.021 1.4142-7.0711 6.364z" fill-opacity=".15686"/>
  <path d="m555.42 636.25c-22.312 18.616-45.834 40.865-66.468 54.447" fill="none" stroke="#000"/>
  <path d="m575.93 652.51c-24.717 20.27-36.243 40.541-50.205 60.811" fill="none" stroke="#000"/>
  <path d="m557.2 640.5c-19.738 17.679-39.462 35.371-60.5 51.75" fill="none" stroke="#a7a69c"/>
  <path d="m568.45 651.75c-17.395 18.75-33.258 37.5-46 56.25" fill="none" stroke="#a7a69c"/>
  <path d="m560.7 653-39.75 47" fill="none" stroke="#a7a69c"/>
  <path d="m558.2 645.75-31.5 28.25" fill="none" stroke="#a7a69c"/>
  <path d="m546.45 662.25-32.75 36.75" fill="none" stroke="#a7a69c"/>
  <path d="m518.45 680-15 13.5" fill="none" stroke="#a7a69c"/>
  <path d="m510.17 837.77c0.15236 15.168 0.80035 29.841 2.8284 43.134" fill="none" stroke="#000"/>
  <path d="m264.09 757.16c1.0493 12.492 1.2794 24.984-1.4142 37.477" fill="none" stroke="#000"/>
  <path d="m513.7 763.52c-2.4841 15.363-3.8322 30.347-0.7071 43.841" fill="none" stroke="#000"/>
  <path d="m248.54 702.01c3.9832 10.842 9.0254 21.685 11.314 32.527" fill="none" stroke="#000"/>
  <path d="m513 755.04c-0.81759-9.8995 2.7185-19.799 9.8995-29.698" fill="none" stroke="#000"/>
  <path d="m270.95 761.5c-0.32729 11.673-0.8548 23.145-2.5 33.5" fill="none" stroke="#a7a69c"/>
  <path d="m306.45 773.5-1.5 32" fill="none" stroke="#a7a69c"/>
  <path d="m347.95 781.5-2 30.5" fill="none" stroke="#a7a69c"/>
  <path d="m394.95 785.5 1 30" fill="none" stroke="#a7a69c"/>
  <path d="m441.95 780 3.5 33" fill="none" stroke="#a7a69c"/>
  <path d="m487.45 772c-1.7697 12.859-0.562 25.474 3 37" fill="none" stroke="#a7a69c"/>
  <path d="m273.45 837c-0.19737 12.772-0.96987 24.394-2.5 34.5" fill="none" stroke="#a7a69c"/>
  <path d="m302.45 847.5-2.5 31" fill="none" stroke="#a7a69c"/>
  <path d="m340.95 856.5-2 29" fill="none" stroke="#a7a69c"/>
  <path d="m379.45 860 0.5 30.5" fill="none" stroke="#a7a69c"/>
  <path d="m413.45 859.5 1 32" fill="none" stroke="#a7a69c"/>
  <path d="m452.45 854.5 3.5 33" fill="none" stroke="#a7a69c"/>
  <path d="m489.95 845c-0.14026 12.825 0.19533 25.49 4 37" fill="none" stroke="#a7a69c"/>
  <path d="m503.45 767c-7.369 14.79-3.7835 27.594-2 39" fill="none" stroke="#a7a69c"/>
  <path d="m499.45 844.47c-0.68952 11.246 1.0646 21.252 3 31.125 0 0-2.6809-19.957-2-31.062l-1-0.0625z" fill="#a7a69c"/>
  <path d="m477.95 849 5.5 36.5" fill="none" stroke="#a7a69c"/>
  <path d="m467.45 851.5 5 35" fill="none" stroke="#a7a69c"/>
  <path d="m459.45 858.56 3.5 30.5 1-0.125-4.5-30.375z" fill="#a7a69c"/>
  <path d="m441.73 856.09-1 0.125 3.5312 27.938-2.5312-28.062z" fill="#a7a69c"/>
  <path d="m431.68 856.86 3.182 33.588" fill="none" stroke="#a7a69c"/>
  <path d="m422.49 859.04 2.1213 31.406" fill="none" stroke="#a7a69c"/>
  <path d="m401.27 860.75c-1.4142 26.517 2.1213 30.406 2.1213 30.406" fill="none" stroke="#a7a69c"/>
  <path d="m392.79 861.11-1.0607 29.698" fill="none" stroke="#a7a69c"/>
  <path d="m370.51 861.11-2.4749 27.931" fill="none" stroke="#a7a69c"/>
  <path d="m360.61 857.92-2.1213 29.345" fill="none" stroke="#a7a69c"/>
  <path d="m348.79 887.59 1 0.0625 2.125-26.5-3.125 26.438z" fill="#a7a69c"/>
  <path d="m329.85 852.97-0.35355 33.32" fill="none" stroke="#a7a69c"/>
  <path d="m319.82 882.97 0.96875 0.09375 2.8438-27.906-3.8125 27.812z" fill="#a7a69c"/>
  <path d="m312.73 850.44-2.4688 24.062 3.4688-23.938-1-0.125z" fill="#a7a69c"/>
  <path d="m289.42 877 0.96875 0.03125 1.4375-26.5-2.4062 26.469z" fill="#a7a69c"/>
  <path d="m282.48 840.25-2.4749 32.88" fill="none" stroke="#a7a69c"/>
  <path d="m279.65 763.88-3.8891 33.234" fill="none" stroke="#a7a69c"/>
  <path d="m287.43 767.77-1.4142 31.113" fill="none" stroke="#a7a69c"/>
  <path d="m297.68 770.24-3.182 31.466" fill="none" stroke="#a7a69c"/>
  <path d="m315.36 775.55-0.35355 31.113" fill="none" stroke="#a7a69c"/>
  <path d="m323.7 778-1.0625 24.75 2.0625-24.719-1-0.03125z" fill="#a7a69c"/>
  <path d="m330.42 808.75 1 0.03125 0.71875-22.969-1.7188 22.938z" fill="#a7a69c"/>
  <path d="m339.75 781.91s-3.8891 26.87-2.4749 27.931" fill="none" stroke="#a7a69c"/>
  <path d="m356.72 783.24-0.35356 28.37" fill="none" stroke="#a7a69c"/>
  <path d="m366.98 784.38-1.4142 28.991" fill="none" stroke="#a7a69c"/>
  <path d="m374.95 788.66 1.0625 24.375 1-0.03125-2.0625-24.344z" fill="#a7a69c"/>
  <path d="m385.36 785.09 0.35355 27.577" fill="none" stroke="#a7a69c"/>
  <path d="m403.95 790.44 1.4062 23.688 1-0.0625-2.4062-23.625z" fill="#a7a69c"/>
  <path d="m415.77 783.68-0.35355 30.759" fill="none" stroke="#a7a69c"/>
  <path d="m424.82 789.38 2.4688 24.75 1-0.09375-3.4688-24.656z" fill="#a7a69c"/>
  <path d="m434.86 780.5v32.527" fill="none" stroke="#a7a69c"/>
  <path d="m453.11 786.5 0.34375 25.469h1l-0.34375-25.469h-1z" fill="#a7a69c"/>
  <path d="m463.14 776.61 3.182 35.709" fill="none" stroke="#a7a69c"/>
  <path d="m474.67 772.72c-0.21385 10.024-0.24642 20.055 1.4062 30.125 0 0-0.61982-20.114-0.40625-30.125h-1z" fill="#a7a69c"/>
  <path d="m262.68 697.06c5.7485 12.662 8.9725 24.694 10.96 36.416" fill="none" stroke="#a7a69c"/>
  <path d="m279.3 695.29c7.5278 12.846 10.115 25.692 13.081 38.537" fill="none" stroke="#a7a69c"/>
  <path d="m304.54 703-1 0.15625c0.09616 0.57698 0.48412 2.4761 1.0312 5.0625s1.2524 5.8177 1.9375 9c1.3702 6.3646 2.6875 12.469 2.6875 12.469s-0.34887-6.2929-1.7188-12.656c-0.68494-3.1817-1.3596-6.447-1.9062-9.0312s-0.95064-4.5163-1.0312-5z" fill="#a7a69c"/>
  <path d="m322.78 705.9 3.8891 29.345" fill="none" stroke="#a7a69c"/>
  <path d="m341.52 705.19 2.8284 31.82" fill="none" stroke="#a7a69c"/>
  <path d="m363.09 706.6v33.588" fill="none" stroke="#a7a69c"/>
  <path d="m382.18 703.42-2.8284 36.416" fill="none" stroke="#a7a69c"/>
  <path d="m403.04 700.95-4.9498 38.184" fill="none" stroke="#a7a69c"/>
  <path d="m422.84 695.29-4.9498 44.901" fill="none" stroke="#a7a69c"/>
  <path d="m445.11 695.29-8.8388 45.962" fill="none" stroke="#a7a69c"/>
  <path d="m463.14 702.01-8.4853 39.598" fill="none" stroke="#a7a69c"/>
  <path d="m481.88 715.09-7.7782 28.638" fill="none" stroke="#a7a69c"/>
  <path d="m496.38 723.93c-4.165 6.9532-5.5982 13.906-6.0104 20.86" fill="none" stroke="#a7a69c"/>
  <path d="m509.81 728.17c-5.089 7.1889-6.568 14.378-6.0104 21.567" fill="none" stroke="#a7a69c"/>
  <path d="m272.23 696.7c4.7454 11.096 8.6778 22.735 10.607 35.709" fill="none" stroke="#a7a69c"/>
  <path d="m293.57 698.97-0.96875 0.25 4.5938 18.812-3.625-19.062z" fill="#a7a69c"/>
  <path d="m252.78 702.21c7.0646 8.5114 9.1601 19.511 11.667 29.845" fill="none" stroke="#a7a69c"/>
  <path d="m313.94 703.77 3.8891 31.113" fill="none" stroke="#a7a69c"/>
  <path d="m333.23 710.88 2.125 26.188 1-0.09375-3.125-26.094z" fill="#a7a69c"/>
  <path d="m352.64 706.59-1 0.03125 0.6875 25.438 0.3125-25.469z" fill="#a7a69c"/>
  <path d="m370.73 739.81 1 0.03125 1.0625-29.688-2.0625 29.656z" fill="#a7a69c"/>
  <path d="m391.57 702.31-3.875 32.156 4.875-32.062-1-0.09375z" fill="#a7a69c"/>
  <path d="m407.14 740.12 1 0.125 4.5938-33.938-5.5938 33.812z" fill="#a7a69c"/>
  <path d="m433.29 695.56-6 37.844 7-37.688-1-0.15625z" fill="#a7a69c"/>
  <path d="m453.95 699.89-7.7782 41.719" fill="none" stroke="#a7a69c"/>
  <path d="m472.2 709.94-6.7188 26.25 7.6875-26-0.96875-0.25z" fill="#a7a69c"/>
  <path d="m373.95 507.5c5.3666 37.404 18.663 73.926 36 110m-119.5 7c14.169-37.619 22.654-76.049 27.5-115" fill="none" stroke="#000"/>
  <path d="m374.45 512 6 29 13 42 14.5 31.5 11.5-7.5c-20.143-23.456-37.169-57.402-40-92.5l-5-2.5z" fill-opacity=".15686"/>
  <path d="m344 508.61-1.7678 144.96" fill="none" stroke="#a7a69c"/>
  <path d="m357.79 508.97c4.3956 44.965 12.123 89.264 21.213 133.29" fill="none" stroke="#a7a69c"/>
  <path d="m329.15 506.49c-4.1197 46.513-8.3771 93.003-18.031 138.59" fill="none" stroke="#a7a69c"/>
  <path d="m365.21 507.91c7.6857 41.025 16.539 81.884 30.759 121.98" fill="none" stroke="#a7a69c"/>
  <path d="m351.42 506.49c0.80212 47.965 3.9165 95.931 8.4853 143.9" fill="none" stroke="#a7a69c"/>
  <path d="m335.16 507.2c-0.4143 48.555-4.0804 97.109-9.1924 145.66" fill="none" stroke="#a7a69c"/>
  <path d="m314.86 560.53c-3.3185 24.141-8.0119 48.232-16.938 72.344l0.9375 0.375c5.0482-13.637 8.7489-27.274 11.612-40.906l4.3876-31.813z" fill="#a7a69c"/>
  <path d="m337.07 604.41s-1.0055 9.986-1.1443 14.552c-0.38844 12.784-1.4323 23.592-2.6682 33.854l0.96875 0.125c1.68-13.949 3.0328-28.966 2.8438-48.531z" fill="#a7a69c"/>
  <path d="m361.54 580.75c1.0952 24.012 4.5533 43.247 7.4062 63.688l1-0.125c-2.0085-14.391-4.3298-28.149-5.9105-43.372l-2.4957-20.19z" fill="#a7a69c"/>
  <path d="m376.73 587.5c2.3866 20.808 6.7678 33.66 10.969 47.125l0.96875-0.28125c-2.3543-7.5461-4.7553-14.86-6.8298-23.47l-5.1077-23.374z" fill="#a7a69c"/>
  <path d="m396.11 603.59s3.4793 12.766 6.875 18.406l0.84375-0.5c-3.367-5.5923-6.2296-11.425-7.7188-17.906z" fill="#a7a69c"/>
  <path d="m265.51 831.11c0.9451 14.144 0.20316 27.602-0.70711 39.891" fill="none" stroke="#000"/>
  <path d="m615.53 264.01 11.314 22.92 9.8995 42.426 9.8995 21.213c-11.894-27.335-34.351-47.455-31.113-86.56z" fill-opacity=".15686"/>
  <path d="m601.33 137.55c5.3049-1.5316 5.3055-4.3892 7.3966-6.7242 0.36339 5.7936 3.1178 4.8703 7.0604 4.6029 7.1537-0.48519 9.0261-0.98211 12.104-3.9304l4.3707 7.0604-15.129 10.759-15.802-11.767z" fill="#dcdcd4"/>
  <path d="m597.85 199.61c3.1072 0.17823 5.7044 1.0366 6.0104 4.9498 0.34747-2.002-0.07765-3.8527 3.8891-6.7175 2.0075-1.4498 4.2426 1.0607 4.2426 1.0607-0.74917-2.4749 1.1599-4.9498 3.182-7.4246l-7.7782-1.4142-9.5459 9.5459z" fill="#dcdcd4"/>
  <path d="m609.16 233.55c0.98871 1.653-12.699 1.6882-10.96-0.35356s3.1696-4.4948 2.1213-10.253c0 0 1.8562 7.4246 3.8891 7.4246s4.2426-7.4246 4.2426-7.4246c-0.8816 6.3288-0.2816 8.9536 0.70711 10.607z" fill="#dcdcd4"/>
  <path d="m525.45 247.75c-4.795-3.2286-5.5996-7.1223-6.5-11 3.4236-1.2176 5.3122-3.4585 6.75-6 5.4954 8.456 1.5836 11.833-0.25 17z" fill-opacity=".70588"/>
  <path d="m575.57 203.84c-16.094 14.058-32.443 25.733-51.281 29.781-4.4718 1.8819-3.0903 11.443 2.3125 10.75 21.771-4.6784 39.631-17.729 56.219-32.219 0.98831-1.5752-0.61726-3.7249-2.1659-5.5827-1.6248-1.9491-3.2624-3.5517-5.0841-2.7298z" fill="#d7d77a" stroke="#000"/>
  <path d="m575.04 204.65c-0.67811 3.353 4.1227 5.3637 7.1014 7.6317" fill="none" stroke="#000"/>
  <path d="m590.2 232.25c-2.5117-0.28069-4.6785 9.0765-1.5 11.25" fill="none" stroke="#000"/>
  <path d="m587.95 235.5c2.6492-7.6172 7.4289 0.59307 1.25 8 0.57324-2.6667 1.4033-5.3333-1.25-8z" fill-opacity=".15686"/>
  <path d="m519.7 250.75c1.8038 7.2075 9.9189 7.4726 18.25 7.5l-12 3h-5.5l-6-2.75-0.25-3 2-4.25 3.5-0.5z" fill-opacity=".15686"/>
  <path d="m523.45 243c10.662-3.5471 21.288-5.8847 29.75-12" fill="none" stroke="#000" stroke-opacity=".31373"/>
  <path d="m542.7 234c-6.6814 2.25-13.413 4.5-20.75 6.75" fill="none" stroke="#000" stroke-opacity=".31373"/>
  <path d="m609.2 136.5-6.25 65" fill="none" stroke="#a7a69c"/>
  <path d="m624.2 142-15 55.5" fill="none" stroke="#a7a69c"/>
  <path d="m616.7 142.75-10.25 56.75" fill="none" stroke="#a7a69c"/>
  <path d="m606.45 236 2.5 17.25" fill="none" stroke="#a7a69c"/>
  <path d="m567.81 624.28c-46.734 31.407-95.306 42.138-144.25 53.74-24.039 5.6986-27.977-6.1341-25.456-18.385 8.3175-40.412 18.223-80.945 41.012-127.28 2.2477 6.2692 5.1792 12.025 14.849 12.728 4.4217 3.7712 6.9985 7.5425 14.849 11.314 6.8354 6.7295 13.671 7.8396 20.506 7.0711 5.5464 2.6884 11.007 5.635 18.385 2.8284l6.9853 0.70711 8.5711-12.021c6.8328 3.5303 11.995 3.7187 16.971 3.5355 1.279 6.409 0.62653 13.462 12.728 16.263-0.34788 8.9819 4.1332 14.342 11.314 17.678-1.7128 5.6568-2.8706 11.314 2.8284 16.971-1.9249 4.9498-4.6441 9.8995 0.70711 14.849z" fill="#e7a69a"/>
  <path d="m567.81 624.28c-46.734 31.407-95.306 42.138-144.25 53.74-24.039 5.6986-27.977-6.1341-25.456-18.385 8.3175-40.412 18.223-80.945 41.012-127.28" fill="none" stroke="#000" stroke-width="2"/>
  <path d="m518.25 561.44c-26.295 32.917-52.557 65.717-86.031 87.469 0 0 23.848-15.088 34.186-25.006 19.189-18.408 36.319-39.821 53.408-61.213l-1.5625-1.25z"/>
  <path d="m443.91 541.34c-16.533 37.029-29.308 75.966-36.406 116.78 0 0 3.5591-13.544 5.0721-20.331 7.4263-33.309 18.529-65.335 32.24-96.044l-0.90625-0.40625z"/>
  <path d="m456.5 549c-28.411 43.5-29.05 88-51 130.5" fill="none" stroke="#000"/>
  <path d="m469 558c-19.294 26.667-27.18 53.333-40.5 80" fill="none" stroke="#000"/>
  <path d="m497.5 567c-16.311 27.87-38.368 52.457-64 75" fill="none" stroke="#000"/>
  <path d="m481 563.5c-8.9883 21.446-24.066 41.878-41 62" fill="none" stroke="#000"/>
  <path d="m473.53 560.28c-8.3192 17.986-16.63 31.23-24.969 45.469 0 0 17.559-26.985 25.906-45.031l-0.9375-0.4375z"/>
  <path d="m461.09 552.72c-13.644 21.048-20.342 40.968-26.062 60.656 0 0 13.306-39.162 26.875-60.094l-0.8125-0.5625z"/>
  <path d="m406.53 633.84c-2.0438 6.3269-2.8705 14.091-3.5938 21.469s-1.3517 14.385-2.9062 19.031l0.9375 0.3125c1.6236-4.8533 2.2461-11.847 2.9688-19.219l2.5938-21.594z"/>
  <path d="m412 679.5c52.804-29.019 97.654-21.269 154-69.5" fill="none" stroke="#000"/>
  <path d="m537.06 557.78c-25.658 51.997-67.783 71.095-104.83 100.76l-14.392 13.834c39.908-37.889 90.703-54.596 120.09-114.16l-0.875-0.4375z"/>
  <path d="m546.09 571.22c-24.592 35.286-57.163 58.521-82.453 75.016l-20.859 14.672c25.116-16.745 71.558-42.396 104.12-89.125l-0.8125-0.5625z"/>
  <path d="m561.62 592.69c-24.776 29.227-70.73 44.586-104.38 62.875 0 0 26.138-11.817 39.828-18.396 24.504-11.776 49.221-24.89 65.297-43.854l-0.75-0.625z"/>
  <path d="m553.06 582.25c-7.0085 12.938-16.658 21.675-27.157 29.117l-22.124 15.539c18.318-11.954 38.082-21.868 50.156-44.156l-0.875-0.5z"/>
  <path d="m222.65 564.79 5.9793 13.077c5.4325 1.418 10.865 1.9108 16.297-4.1119 3.9232-3.4809 8.3597-5.4221 10.506-14.235 5.9078-4.148 12.006-7.1539 16.094-22.222 17.083 39.127 21.335 78.196 24.163 117.38 1.5367 21.296-9.326 23.691-17.263 20.506-21.842-8.763-50.793-33.721-51.019-62.339-8.7506-11.908-8.2265-30.101-4.7566-48.055z" fill="#e7a69a"/>
  <path d="m271.53 537.3c17.083 39.127 21.335 78.196 24.163 117.38 1.5367 21.296-9.326 23.691-17.263 20.506-21.842-8.763-50.793-33.721-51.019-62.339-8.7506-11.908-8.2265-30.101-4.7566-48.055" fill="none" stroke="#000" stroke-width="2"/>
  <path d="m226.78 610.88-1.5625 1.25c12.537 16.148 23.536 23.249 34.688 31.688 0 0-20.761-17.012-33.125-32.938z"/>
  <path d="m263.44 554.28-0.875 0.4375c19.363 38.478 18.635 74.5 27.938 111.91 0 0-3.0197-18.857-4.5664-28.114-4.6227-27.665-7.9-55.225-22.496-84.23z"/>
  <path d="m250.5 571.5c18.864 30.295 24.494 60.59 34.31 90.885" fill="none" stroke="#000"/>
  <path d="m234.41 577.69-0.8125 0.625c13.835 17.366 22.472 36.24 30.007 53.644l15.837 32.824c-14.391-28.441-22.258-58.508-45.031-87.094z"/>
  <path d="m231.88 628.19-0.75 0.625c7.6805 9.3856 15.364 16.533 23.031 23.094 6.5202 5.5791 13.002 10.74 19.5 16.469 0 0-12.374-11.656-18.875-17.219-7.6448-6.5414-15.275-13.643-22.906-22.969z"/>
  <path d="m219.94 584.28-0.875 0.4375c5.8975 11.916 11.083 19.656 16 25.625 6.0727 7.3716 11.686 12.035 17.562 18.5 0 0-10.77-11.827-16.781-19.125-4.8676-5.9086-10.036-13.577-15.906-25.438z"/>
  <path d="m222.47 568.84-0.9375 0.3125c7.0187 21.939 17.609 34.911 27.031 50.594 0 0-19.129-29.137-26.094-50.906z"/>
  <path d="m256.94 560.25-0.875 0.5c10.731 18.594 15.194 37.212 19.438 55.875 0 0-7.7468-37.635-18.562-56.375z"/>
  <path d="m477.3 846.31c9.5676 5.4212 12.747 24.984 0.7071 37.477 5.8926 0.2357 11.785 0.4714 17.678 0.7071 4.8557-2.6868 9.198-5.887 17.678-4.9498l-2.1213-41.012-12.021 5.864c-3.2887-2.5422-11.096-1.1953-21.92 1.9142z" fill-opacity=".069652"/>
  <path d="m487.5 771 10.5-4h5.5l10.5-3.5-3 21.5 1.5 21.5h-11.5l-14 3c1.3846-12.833 4.1523-25.667 0.5-38.5z" fill-opacity=".069652"/>
  <path d="m485 745c7.0026-8.3333 7.2868-16.667 5-25l5 5 7.5-2 6.5 6.5 14-4.5-10 18v12l-20-10h-8z" fill-opacity=".069652"/>
  <path d="m513 746 9.5-20.5-11 3.5c6.1774-6 10.938-12 10.5-18l4 2.5 21-29.5-4 24.5-8 19.5-19 17-3 1z" fill-opacity=".15686"/>
  <path d="m287.5 593.5c-0.12979 35.841-1.083 69.853-13 79.5l6 4.5 10-3 6-9-2-29-7-43z" fill-opacity=".08"/>
  <path d="m454 633.5c25.871-23.05 48.556-39.089 80.5-75.5-5.6924 0.28636-9.8035 0.04563-11.5-1l-23 27.5-23 26.5-23 22.5z" fill-opacity=".08"/>
  <g id="points" fill="#000" stroke="#000" stroke-width="2">
    <path transform="translate(163,205.5)" d="m132 355a3 3 0 1 1-6 0 3 3 0 1 1 6 0z"/>
    <path transform="translate(177,-15)" d="m132 355a3 3 0 1 1-6 0 3 3 0 1 1 6 0z"/>
    <path transform="translate(187,82)" d="m132 355a3 3 0 1 1-6 0 3 3 0 1 1 6 0z"/>
    <path transform="translate(207,-133.5)" d="m132 355a3 3 0 1 1-6 0 3 3 0 1 1 6 0z"/>
    <path transform="translate(211,316)" d="m132 355a3 3 0 1 1-6 0 3 3 0 1 1 6 0z"/>
    <path transform="translate(220,189.5)" d="m132 355a3 3 0 1 1-6 0 3 3 0 1 1 6 0z"/>
    <path transform="translate(231,490)" d="m132 355a3 3 0 1 1-6 0 3 3 0 1 1 6 0z"/>
    <path transform="translate(282,-177)" d="m132 355a3 3 0 1 1-6 0 3 3 0 1 1 6 0z"/>
    <path transform="translate(298,-264)" d="m132 355a3 3 0 1 1-6 0 3 3 0 1 1 6 0z"/>
    <path transform="translate(376,253)" d="m132 355a3 3 0 1 1-6 0 3 3 0 1 1 6 0z"/>
    <path transform="translate(407,318.5)" d="m132 355a3 3 0 1 1-6 0 3 3 0 1 1 6 0z"/>
    <path transform="translate(447,279)" d="m132 355a3 3 0 1 1-6 0 3 3 0 1 1 6 0z"/>
    <path transform="translate(480.5,-188)" d="m132 355a3 3 0 1 1-6 0 3 3 0 1 1 6 0z"/>
    <path transform="translate(482,-80)" d="m132 355a3 3 0 1 1-6 0 3 3 0 1 1 6 0z"/>
  </g>
  <g id="dash-lines" fill="none" stroke="#000" stroke-dasharray="6,2" stroke-width="2">
    <path d="m60 134h187l163.7 43.862"/>
    <path d="m60 195h181l96.319 25.809"/>
    <path d="m60 340h245"/>
    <path d="m60 399h118l137.76 36.912"/>
    <path d="m60 494h148l141.22 51.399"/>
    <path d="m60 561h233"/>
    <path d="m60 719.43h101.82l178.63-47.865"/>
    <path d="m60 779.84h60.811l239.23 64.1"/>
    <path d="m528 534c33.531-42.447 51.035-93.369 59-178"/>
    <path d="m565.34 249.73c-1.9978 9.8442-6.6353 16.747-12.033 16.747-7.221 0-13.081-12.355-13.081-27.577s5.8605-27.577 13.081-27.577c1.9769 0 3.8519 0.92603 5.5326 2.5834"/>
    <path d="m808 35.134h-198l-183 56"/>
    <path d="m808 192.94h-98.995l-101.46-27.186"/>
    <path d="m808 253.75h-127.28l-70 21"/>
    <path d="m808 355.57h-155.56l-91-91"/>
    <path d="m808 420h-130l-116 55"/>
    <path d="m808 480h-82l-223.43 128.99"/>
    <path d="m808 540h-72l-161 94.5"/>
    <path d="m808 674h-275"/>
  </g>
  <g id="circles" fill="#FFF" stroke="#000" stroke-width=".5">
    <circle cx="35" cy="135" r="25"/>
    <circle cx="35" cy="195" r="25"/>
    <circle cx="35" cy="340" r="25"/>
    <circle cx="35" cy="400" r="25"/>
    <circle cx="35" cy="495" r="25"/>
    <circle cx="35" cy="560" r="25"/>
    <circle cx="35" cy="720" r="25"/>
    <circle cx="35" cy="780" r="25"/>
    <circle cx="835" cy="35" r="25"/>
    <circle cx="835" cy="195" r="25"/>
    <circle cx="835" cy="255" r="25"/>
    <circle cx="835" cy="355" r="25"/>
    <circle cx="835" cy="420" r="25"/>
    <circle cx="835" cy="480" r="25"/>
    <circle cx="835" cy="540" r="25"/>
    <circle cx="835" cy="675" r="25"/>
  </g>
  <g id="text" transform="translate(0,12)" stroke="#000" stroke-width=".5" font-family="DejaVuSans" font-size="37px" text-anchor="middle">
    <text x="34" y="135"><tspan>1</tspan></text>
    <text x="34" y="195"><tspan>2</tspan></text>
    <text x="34" y="340"><tspan>3</tspan></text>
    <text x="34" y="400"><tspan>4</tspan></text>
    <text x="34" y="495"><tspan>5</tspan></text>
    <text x="34" y="560"><tspan>6</tspan></text>
    <text x="34" y="720"><tspan>7</tspan></text>
    <text x="34" y="780"><tspan>8</tspan></text>
    <text x="834" y="35"><tspan>9</tspan></text>
    <text x="834" y="195"><tspan>10</tspan></text>
    <text x="834" y="255"><tspan>11</tspan></text>
    <text x="834" y="355"><tspan>12</tspan></text>
    <text x="834" y="420"><tspan>13</tspan></text>
    <text x="834" y="480"><tspan>14</tspan></text>
    <text x="834" y="540"><tspan>15</tspan></text>
    <text x="834" y="675"><tspan>16</tspan></text>
  </g>
</svg>
